<?xml version="1.0" encoding="utf-8"?>
<!-- Generator: Adobe Illustrator 24.0.2, SVG Export Plug-In . SVG Version: 6.00 Build 0)  -->
<svg version="1.1" xmlns="http://www.w3.org/2000/svg" xmlns:xlink="http://www.w3.org/1999/xlink" x="0px" y="0px"
	 viewBox="0 0 32 32" style="enable-background:new 0 0 32 32;" xml:space="preserve">
<style type="text/css">
	.st0{fill-rule:evenodd;clip-rule:evenodd;fill:#FFFFFF;}
	.st1{fill-rule:evenodd;clip-rule:evenodd;stroke:#FFFFFF;stroke-width:1.5;stroke-miterlimit:10;}
</style>
<g id="Capa_1">
	<g>
		<path class="st0" d="M17.5,11.6l1.8-1.4c0.2-0.2,0.5,0,0.5,0.2v2.5c0.1,0.1,0.2,0.2,0.3,0.3c0.3,0.2,0.6,0.5,0.9,0.7
			c0.2,0.2,0.4,0.3,0.6,0.4v-3.9c0-1.8-2.1-2.8-3.5-1.7l-2.2,1.8c0.3,0.2,0.5,0.4,0.8,0.6C17,11.2,17.3,11.4,17.5,11.6z"/>
		<path class="st0" d="M21.5,16.3c-0.3-0.2-0.5-0.4-0.8-0.6c-0.3-0.2-0.6-0.4-0.9-0.7v7.6c0,0.3-0.3,0.4-0.5,0.2l-3.8-3.1
			c-0.4-0.3-0.9-0.5-1.4-0.5h-2c-0.2,0-0.3-0.1-0.3-0.3v-5c0-0.2,0.1-0.3,0.3-0.3h2l0,0c0.5,0,1-0.2,1.4-0.5l0.6-0.5
			c-0.1-0.1-0.2-0.1-0.3-0.2c-0.3-0.2-0.6-0.4-0.9-0.6c-0.1-0.1-0.2-0.2-0.3-0.3l-0.2,0.2c-0.1,0-0.1,0.1-0.2,0.1v0h-2
			c-1.2,0-2.2,1-2.2,2.2v5c0,1.2,1,2.2,2.2,2.2h2c0.1,0,0.1,0,0.2,0.1l3.8,3.1c1.4,1.1,3.5,0.1,3.5-1.7v-6.1
			C21.6,16.4,21.6,16.4,21.5,16.3z"/>
	</g>
</g>
<g id="Capa_2">
	<path class="st1" d="M10.5,9c5.4,3.9,10.7,7.9,16.1,11.8"/>
</g>
</svg>
