<?xml version="1.0" encoding="utf-8"?>
<!-- Generator: Adobe Illustrator 24.0.2, SVG Export Plug-In . SVG Version: 6.00 Build 0)  -->
<svg version="1.1" id="Capa_1" xmlns="http://www.w3.org/2000/svg" xmlns:xlink="http://www.w3.org/1999/xlink" x="0px" y="0px"
	 viewBox="0 0 32 32" style="enable-background:new 0 0 32 32;" xml:space="preserve">
<style type="text/css">
	.st0{fill-rule:evenodd;clip-rule:evenodd;fill:#FFFFFF;}
</style>
<g>
	<path class="st0" d="M6.9,11.6h-2c-1.2,0-2.2,1-2.2,2.2v5c0,1.2,1,2.2,2.2,2.2h2c0.1,0,0.1,0,0.2,0.1l3.8,3.1
		c1.4,1.1,3.5,0.1,3.5-1.7V10.2c0-1.8-2.1-2.8-3.5-1.7l-3.8,3.1C7,11.6,7,11.6,6.9,11.6L6.9,11.6z M6.9,13.5c0.5,0,1-0.2,1.4-0.5
		l3.8-3.1c0.2-0.2,0.5,0,0.5,0.2v12.2c0,0.3-0.3,0.4-0.5,0.2l-3.8-3.1C7.9,19.2,7.4,19,6.9,19h-2c-0.2,0-0.3-0.1-0.3-0.3v-5
		c0-0.2,0.1-0.3,0.3-0.3L6.9,13.5L6.9,13.5z"/>
	<path class="st0" d="M24.1,8.1c2.1,2.1,3.4,4.9,3.4,8.1c0,3.2-1.3,6-3.4,8.1c-0.4,0.4-0.4,1,0,1.3c0.4,0.4,1,0.4,1.3,0
		c2.4-2.4,3.9-5.7,3.9-9.4c0-3.7-1.5-7-3.9-9.4c-0.4-0.4-1-0.4-1.3,0C23.7,7.2,23.7,7.8,24.1,8.1L24.1,8.1z"/>
	<path class="st0" d="M20.6,11.7c1.2,1.2,1.9,2.8,1.9,4.6c0,1.8-0.7,3.4-1.9,4.6c-0.4,0.4-0.4,1,0,1.3c0.4,0.4,1,0.4,1.3,0
		c1.5-1.5,2.5-3.6,2.5-5.9c0-2.3-0.9-4.4-2.5-5.9c-0.4-0.4-1-0.4-1.3,0C20.2,10.7,20.2,11.3,20.6,11.7L20.6,11.7z"/>
	<path class="st0" d="M18.4,18.7c0.6-0.6,1-1.5,1-2.4c0-0.9-0.4-1.8-1-2.4c-0.4-0.4-1-0.3-1.3,0c-0.4,0.4-0.3,1,0,1.3
		c0.3,0.3,0.5,0.7,0.5,1.1c0,0.4-0.2,0.8-0.5,1.1c-0.4,0.4-0.4,0.9,0,1.3C17.4,19,18,19,18.4,18.7L18.4,18.7z"/>
</g>
</svg>
